<?xml version="1.0" encoding="utf-8"?>
<!-- Svg Vector Icons : http://www.onlinewebfonts.com/icon -->
<!DOCTYPE svg PUBLIC "-//W3C//DTD SVG 1.1//EN" "http://www.w3.org/Graphics/SVG/1.1/DTD/svg11.dtd">
<svg version="1.1" xmlns="http://www.w3.org/2000/svg" xmlns:xlink="http://www.w3.org/1999/xlink" x="0px" y="0px" viewBox="0 0 1000 1000" enable-background="new 0 0 1000 1000" xml:space="preserve">
<metadata> Svg Vector Icons : http://www.onlinewebfonts.com/icon </metadata>
<g><path d="M500,10C229.4,10,10,229.4,10,500c0,270.6,219.4,490,490,490c270.6,0,490-219.4,490-490C990,229.4,770.6,10,500,10z M748.8,689.2l-59.7,59.7c-10.9,10.9-28.9,10.9-39.8,0L500,599.6L350.7,748.8c-10.9,10.9-28.8,10.9-39.7-0.1l-59.9-59.6c-10.8-11.1-10.8-28.9,0-39.9l149.3-149.2L251.2,350.8c-10.9-11-10.9-28.8,0-39.7l59.8-59.8c10.9-11,28.8-11,39.7,0L500,400.5l149.2-149.3c10.9-11,28.9-11,39.7,0l59.8,59.7c10.9,11,10.9,28.9,0.1,39.8L599.6,500.1l149.3,149.2C759.7,660.3,759.7,678.1,748.8,689.2z"/></g>
</svg>